<?xml version="1.0" encoding="UTF-8" standalone="no"?>
<!DOCTYPE svg PUBLIC "-//W3C//DTD SVG 1.1//EN" "http://www.w3.org/Graphics/SVG/1.1/DTD/svg11.dtd">
<svg xmlns="http://www.w3.org/2000/svg" xmlns:xlink="http://www.w3.org/1999/xlink" version="1.1" width="108.714pt" height="21.9869pt" viewBox="0 0 108.714 21.9869">
<g enable-background="new">
<g id="Layer-1" data-name="Layer 1">
<path transform="matrix(1,0,0,-1,7.5638,6.5899)" d="M 0 0 L -5.688 0 L -5.688 -13.242 L -5.498 -13.242 L -5.498 -13.25 L .19 -13.25 L .19 -.004 L 0 -.004 Z "/>
<path transform="matrix(1,0,0,-1,7.5707,2.4972)" d="M 0 0 L 0 .006 L -5.695 .006 L -5.695 -3.064 L -5.505 -3.064 L -5.505 -3.07 L .189 -3.07 L .189 0 Z "/>
<path transform="matrix(1,0,0,-1,80.433,9.0597)" d="M 0 0 L 1.394 -4.529 L -1.323 -4.529 Z M 2.847 6.562 L 2.845 6.568 L -2.938 6.568 L -9.161 -10.773 L -8.968 -10.773 L -8.97 -10.779 L -3.063 -10.779 L -2.411 -8.49 L 2.384 -8.49 L 3.06 -10.773 L 3.245 -10.773 L 3.247 -10.779 L 9.255 -10.779 L 3.034 6.562 Z "/>
<path transform="matrix(1,0,0,-1,106.6557,2.4972)" d="M 0 0 L -.183 0 L -.183 .006 L -5.974 .006 L -5.974 -4.145 L -5.996 -7.545 L -11.422 0 L -11.605 0 L -11.609 .006 L -16.939 .006 L -16.939 -17.337 L -16.75 -17.337 L -16.75 -17.342 L -10.959 -17.342 L -10.959 -13.215 L -10.956 -9.841 L -5.511 -17.337 L -5.325 -17.337 L -5.321 -17.342 L 0 -17.342 Z "/>
<clipPath id="cp0">
<path transform="matrix(1,0,0,-1,0,21.9869)" d="M 0 0 L 108.714 0 L 108.714 21.987 L 0 21.987 Z "/>
</clipPath>
<g clip-path="url(#cp0)">
<path transform="matrix(1,0,0,-1,57.9389,2.4972)" d="M 0 0 L -.192 0 L -.187 .006 L -7.208 .006 L -11.328 -5.362 L -11.328 0 L -11.515 0 L -11.515 .006 L -20.895 .006 C -17.509 -1.413 -15.154 -4.732 -15.154 -8.633 C -15.154 -12.555 -17.543 -15.93 -20.964 -17.337 L -20.763 -17.337 C -20.767 -17.338 -20.77 -17.341 -20.773 -17.342 L -11.328 -17.342 L -11.328 -11.85 L -10.752 -10.918 L -6.676 -17.337 L -6.492 -17.337 L -6.488 -17.342 L .679 -17.342 L -6.681 -6.869 Z "/>
<path transform="matrix(1,0,0,-1,24.1781,11.133901)" d="M 0 0 C 0 3.886 2.361 7.219 5.728 8.646 L 5.529 8.646 C 5.533 8.648 5.536 8.65 5.54 8.652 L -3.839 8.642 L -3.839 4.492 L -3.858 1.039 L -9.288 8.637 L -9.471 8.637 L -9.475 8.642 L -14.803 8.642 L -14.803 -8.699 L -14.612 -8.699 L -14.612 -8.706 L -8.821 -8.706 L -8.821 -4.578 L -8.839 -1.188 L -3.376 -8.7 L -3.189 -8.699 L -3.185 -8.706 L 6.074 -8.687 C 2.66 -7.278 0 -3.917 0 0 "/>
<path transform="matrix(1,0,0,-1,62.4662,7.0245)" d="M 0 0 C 0 .608 .534 .966 1.718 .984 C 2.232 .974 2.706 .883 3.092 .681 C 3.503 .463 3.816 .101 3.913 -.501 L 4.1 -.501 C 4.1 -.503 4.101 -.504 4.101 -.506 L 9.502 -.506 C 9.093 2.529 6.897 4.985 2.076 4.985 L 2.063 4.985 C 2.005 4.985 1.949 4.99 1.888 4.99 C -2.452 4.99 -5.637 3.136 -5.637 -.548 C -5.637 -7.173 4.346 -5.366 4.346 -7.991 C 4.346 -8.786 3.455 -9.237 2.101 -9.263 C 1.564 -9.251 .997 -9.117 .558 -8.839 C .075 -8.55 -.261 -8.093 -.382 -7.468 L -.57 -7.468 C -.57 -7.466 -.571 -7.464 -.572 -7.461 L -6.021 -7.461 C -5.9 -10.594 -2.911 -13.268 1.67 -13.268 C 2.868 -13.268 3.977 -13.144 4.965 -12.896 L 5.178 -12.896 C 8.113 -12.151 9.981 -10.303 9.981 -7.298 C 9.981 -.988 0 -2.603 0 0 "/>
<path transform="matrix(1,0,0,-1,33.3793,6.9015009)" d="M 0 0 C -2.362 0 -4.272 -1.91 -4.272 -4.267 C -4.272 -6.625 -2.362 -8.538 0 -8.538 C 2.359 -8.538 4.273 -6.625 4.273 -4.267 C 4.273 -1.91 2.359 0 0 0 " fill="#ee3035"/>
</g>
</g>
</g>
</svg>
